<svg version="1.0" xmlns="http://www.w3.org/2000/svg"
 width="64.000000pt" height="64.000000pt" viewBox="0 0 64.000000 64.000000"
 preserveAspectRatio="xMidYMid meet">
<metadata>
Created by potrace 1.16, written by Peter Selinger 2001-2019
</metadata>
<g transform="translate(0.000000,64.000000) scale(0.100000,-0.100000)"
fill="#000000" stroke="none">
<path d="M282 628 c-17 -17 -17 -329 0 -346 19 -19 66 -15 78 7 15 29 13 324
-2 339 -7 7 -24 12 -38 12 -14 0 -31 -5 -38 -12z"/>
<path d="M119 513 c-65 -59 -93 -124 -94 -213 0 -124 62 -225 170 -276 70 -33
180 -33 250 0 62 29 117 86 147 151 33 73 31 181 -4 251 -31 60 -99 124 -131
124 -55 0 -65 -66 -17 -102 17 -12 42 -46 56 -75 21 -43 25 -61 20 -97 -17
-108 -107 -183 -211 -174 -97 8 -165 74 -181 177 -8 51 30 135 76 169 21 16
30 31 30 50 0 62 -51 69 -111 15z"/>
</g>
</svg>
